<?xml version="1.0" encoding="UTF-8"?>
<svg width="20px" height="20px" viewBox="0 0 20 20" version="1.1" xmlns="http://www.w3.org/2000/svg" xmlns:xlink="http://www.w3.org/1999/xlink">
    <!-- Generator: Sketch 52.2 (67145) - http://www.bohemiancoding.com/sketch -->
    <title>Export CSS Stylesheets</title>
    <desc>Created with Sketch.</desc>
    <g id="Screens" stroke="none" stroke-width="1" fill="none" fill-rule="evenodd">
        <g id="Export-CSS-Stylesheets" fill="#5b5e65">
            <path d="M10,20 C4.4775,20 0,15.5225 0,10 C0,4.4775 4.4775,0 10,0 C15.5225,0 20,4.4775 20,10 C20,15.5225 15.5225,20 10,20 L10,20 Z M10,19.1666667 C4.93770833,19.1666667 0.833333333,15.0622917 0.833333333,10 C0.833333333,4.93770833 4.93770833,0.833333333 10,0.833333333 C15.0622917,0.833333333 19.1666667,4.93770833 19.1666667,10 C19.1666667,15.0622917 15.0622917,19.1666667 10,19.1666667 Z M15.1681503,7.5 L4.69970811,7.5 C4.40578106,7.5 4.16666667,7.7837643 4.16666667,8.13298672 L4.16666667,11.8670133 C4.16666667,12.2158983 4.40562608,12.5 4.69970811,12.5 L15.1679953,12.5 C15.4619482,12.5 15.7010368,12.2160823 15.7010368,11.8670133 L15.7010368,8.13298672 C15.7010368,7.7837643 15.4620774,7.5 15.1681503,7.5 Z M12.1036318,10.2306831 C11.6707616,10.0613018 11.4512285,9.78818134 11.4512285,9.41938898 C11.4512285,8.9281157 11.8279347,8.58490537 12.3677955,8.58490537 C12.6149965,8.58490537 12.8915524,8.65947364 13.0367013,8.73281494 L13.1296126,8.77986872 L12.9540658,9.41561609 L12.8133953,9.33951413 C12.7450232,9.30224533 12.5694764,9.24332076 12.3903101,9.24332076 C12.2415417,9.24332076 12.2298856,9.34328702 12.2298856,9.37405294 C12.2298856,9.42540106 12.2298856,9.46251649 12.5237723,9.58772737 C12.9459986,9.76345818 13.1428637,10.0233582 13.1428637,10.405371 C13.1428637,10.7997761 12.8889758,11.2606515 12.1735376,11.2606515 C11.9074415,11.2606515 11.5714702,11.1668507 11.4362903,11.0828656 L11.3639612,11.0380203 L11.4721788,10.3809852 L11.631407,10.4728843 C11.7375694,10.533864 11.9849238,10.6022361 12.1699181,10.6022361 C12.2975522,10.6022361 12.3739916,10.5427901 12.3739916,10.4434987 C12.3736542,10.3996963 12.3736542,10.3395755 12.1036318,10.2306831 Z M9.87314806,10.2306831 C9.44009386,10.0613018 9.22056072,9.78818134 9.22056072,9.41938898 C9.22056072,8.9281157 9.597451,8.58508941 10.1371584,8.58508941 C10.3843287,8.58508941 10.6608846,8.65947364 10.8062176,8.73299899 L10.8989755,8.77986872 L10.7235821,9.41561609 L10.5829116,9.33951413 C10.5143554,9.30224533 10.3388086,9.24332076 10.1596423,9.24332076 C10.0110579,9.24332076 9.99921782,9.34328702 9.99921782,9.37405294 C9.99921782,9.42540106 9.99921782,9.46251649 10.2932885,9.58791141 C10.7155149,9.76345818 10.91238,10.0233582 10.91238,10.405371 C10.91238,10.7999295 10.6584921,11.2606515 9.94286985,11.2606515 C9.67695776,11.2606515 9.34080243,11.1668507 9.20562253,11.0830189 L9.1334775,11.0380203 L9.241511,10.3809852 L9.40076992,10.4728843 C9.50690163,10.534048 9.754256,10.6022361 9.93943437,10.6022361 C10.0670685,10.6022361 10.1433238,10.5427901 10.1433238,10.4434987 C10.1429864,10.3996963 10.1429864,10.3395755 9.87314806,10.2306831 Z M8.02983037,8.58508941 C8.30963774,8.58508941 8.52006073,8.64744946 8.62349314,8.70585258 L8.7059446,8.7523849 L8.54978375,9.41647495 L8.40963467,9.35258121 C8.2996994,9.30224533 8.17945769,9.27681666 8.05234502,9.27681666 C7.69505537,9.27681666 7.49027637,9.51420202 7.49027637,9.92802368 C7.49027637,10.3351278 7.69625165,10.5687402 8.05559645,10.5687402 C8.18958007,10.5687402 8.33626269,10.5353977 8.41184319,10.5024232 L8.55855649,10.4385295 L8.67622159,11.1005337 L8.59616269,11.1439987 C8.49257691,11.2001626 8.27718475,11.2604675 7.98191773,11.2604675 C7.21853624,11.2604675 6.72539186,10.7497776 6.72539186,9.95928039 C6.72520782,9.13734241 7.24945554,8.58508941 8.02983037,8.58508941 Z" id="Path"></path>
        </g>
    </g>
</svg>