<?xml version="1.0" encoding="UTF-8"?>
<svg width="32px" height="32px" viewBox="0 0 20 20" version="1.1" xmlns="http://www.w3.org/2000/svg" xmlns:xlink="http://www.w3.org/1999/xlink">
    <!-- Generator: Sketch 52.2 (67145) - http://www.bohemiancoding.com/sketch -->
    <title>Import Pages </title>
    <desc>Created with Sketch.</desc>
    <g id="Screens" stroke="none" stroke-width="1" fill="none" fill-rule="evenodd">
        <g id="Import-Pages-" fill="#5b5e65">
            <path d="M10,20 C4.4775,20 0,15.5225 0,10 C0,4.4775 4.4775,0 10,0 C15.5225,0 20,4.4775 20,10 C20,15.5225 15.5225,20 10,20 L10,20 Z M10,19.1666667 C4.93770833,19.1666667 0.833333333,15.0622917 0.833333333,10 C0.833333333,4.93770833 4.93770833,0.833333333 10,0.833333333 C15.0622917,0.833333333 19.1666667,4.93770833 19.1666667,10 C19.1666667,15.0622917 15.0622917,19.1666667 10,19.1666667 Z M12.3875934,13.9038889 L6.90866619,13.9038889 L6.90866619,5.26191358 L12.3875934,5.26191358 L12.3875934,7.42240741 L13.4629262,7.42240741 L13.4629262,5.25509259 C13.4629262,4.65645062 12.9688889,4.16666667 12.3650862,4.16666667 L6.93117337,4.16666667 C6.32737069,4.16666667 5.83333333,4.65645062 5.83333333,5.25509259 L5.83333333,13.9107099 C5.83333333,14.5093519 6.32737069,14.9991358 6.93117337,14.9991358 L12.3650862,14.9991358 C12.9688889,14.9991358 13.4629262,14.5093519 13.4629262,13.9107099 L13.4629262,11.7433951 L12.3875934,11.7433951 L12.3875934,13.9038889 Z M9.04952898,9.62405247 L11.1871511,11.2289907 L11.1871511,10.1178796 L16.6660783,10.1178796 L16.6660783,9.04791049 L11.1871511,9.04791049 L11.1871511,7.93679938 L9.04952898,9.62405247 Z" id="Path"></path>
        </g>
    </g>
</svg>