<?xml version="1.0" encoding="UTF-8"?>
<svg width="20px" height="20px" viewBox="0 0 20 20" version="1.1" xmlns="http://www.w3.org/2000/svg" xmlns:xlink="http://www.w3.org/1999/xlink">
    <!-- Generator: Sketch 53.2 (72643) - https://sketchapp.com -->
    <title>lock</title>
    <desc>Created with Sketch.</desc>
    <g id="Page-1" stroke="none" stroke-width="1" fill="none" fill-rule="evenodd">
        <g id="lock" fill="#B2B3B7" fill-rule="nonzero">
            <path d="M13.4375,8.75000563 L12.8125,8.75000563 L12.8125,7.83985019 C12.8125,6.28516412 11.5625,5.00391528 10.0078125,5.00000903 C8.453125,4.99610279 7.1875,6.2597735 7.1875,7.8125065 L7.1875,8.75000563 L6.5625,8.75000563 C6.04492188,8.75000563 5.625,9.16992713 5.625,9.68750481 L5.625,14.0625009 C5.625,14.5800785 6.04492188,15 6.5625,15 L13.4375,15 C13.9550781,15 14.375,14.5800785 14.375,14.0625009 L14.375,9.68750481 C14.375,9.16992713 13.9550781,8.75000563 13.4375,8.75000563 Z M8.125,7.8125065 C8.125,6.77930431 8.96679688,5.93750819 10,5.93750819 C11.0332031,5.93750819 11.875,6.77930431 11.875,7.8125065 L11.875,8.75000563 L8.125,8.75000563 L8.125,7.8125065 Z M13.4375,14.0625009 L6.5625,14.0625009 L6.5625,9.68750481 L13.4375,9.68750481 L13.4375,14.0625009 Z" id="1---Main-Use/lock"></path>
            <path d="M10,20 C15.5228475,20 20,15.5228475 20,10 C20,4.4771525 15.5228475,0 10,0 C4.4771525,0 0,4.4771525 0,10 C0,15.5228475 4.4771525,20 10,20 Z M10,19.375 C4.82233047,19.375 0.625,15.1776695 0.625,10 C0.625,4.82233047 4.82233047,0.625 10,0.625 C15.1776695,0.625 19.375,4.82233047 19.375,10 C19.375,15.1776695 15.1776695,19.375 10,19.375 Z" id="Path"></path>
        </g>
    </g>
</svg>