<?xml version="1.0" encoding="UTF-8"?>
<svg width="32px" height="32px" viewBox="0 0 32 32" version="1.1" xmlns="http://www.w3.org/2000/svg" xmlns:xlink="http://www.w3.org/1999/xlink">
    <!-- Generator: Sketch 53.2 (72643) - https://sketchapp.com -->
    <title>Lock</title>
    <desc>Created with Sketch.</desc>
    <g id="Page-1" stroke="none" stroke-width="1" fill="none" fill-rule="evenodd">
        <g id="Lock" fill="#B2B3B7" fill-rule="nonzero">
            <path d="M21.5,14.000009 L20.5,14.000009 L20.5,12.5437603 C20.5,10.0562626 18.5,8.00626445 16.0125,8.00001445 C13.525,7.99376446 11.5,10.0156376 11.5,12.5000104 L11.5,14.000009 L10.5,14.000009 C9.671875,14.000009 9,14.6718834 9,15.5000077 L9,22.5000014 C9,23.3281256 9.671875,24 10.5,24 L21.5,24 C22.328125,24 23,23.3281256 23,22.5000014 L23,15.5000077 C23,14.6718834 22.328125,14.000009 21.5,14.000009 Z M13,12.5000104 C13,10.8468869 14.346875,9.5000131 16,9.5000131 C17.653125,9.5000131 19,10.8468869 19,12.5000104 L19,14.000009 L13,14.000009 L13,12.5000104 Z M21.5,22.5000014 L10.5,22.5000014 L10.5,15.5000077 L21.5,15.5000077 L21.5,22.5000014 Z" id="1---Main-Use/lock"></path>
            <path d="M16,32 C24.836556,32 32,24.836556 32,16 C32,7.163444 24.836556,0 16,0 C7.163444,0 0,7.163444 0,16 C0,24.836556 7.163444,32 16,32 Z M16,31 C7.71572875,31 1,24.2842712 1,16 C1,7.71572875 7.71572875,1 16,1 C24.2842712,1 31,7.71572875 31,16 C31,24.2842712 24.2842712,31 16,31 Z" id="Path"></path>
        </g>
    </g>
</svg>