<?xml version="1.0" encoding="UTF-8"?>
<svg width="20px" height="20px" viewBox="0 0 20 20" version="1.1" xmlns="http://www.w3.org/2000/svg" xmlns:xlink="http://www.w3.org/1999/xlink">
    <!-- Generator: Sketch 52.2 (67145) - http://www.bohemiancoding.com/sketch -->
    <title>Page Roles</title>
    <desc>Created with Sketch.</desc>
    <g id="Screens" stroke="none" stroke-width="1" fill="none" fill-rule="evenodd">
        <g id="Page-Roles" fill="#5b5e65">
            <path d="M10,20 C4.4775,20 0,15.5225 0,10 C0,4.4775 4.4775,0 10,0 C15.5225,0 20,4.4775 20,10 C20,15.5225 15.5225,20 10,20 L10,20 Z M10,19.1666667 C4.93770833,19.1666667 0.833333333,15.0622917 0.833333333,10 C0.833333333,4.93770833 4.93770833,0.833333333 10,0.833333333 C15.0622917,0.833333333 19.1666667,4.93770833 19.1666667,10 C19.1666667,15.0622917 15.0622917,19.1666667 10,19.1666667 Z M6.00536139,12.9892772 C5.45008019,12.9892772 5,13.4394378 5,13.9946386 C5,14.5499198 5.45008019,15 6.00536139,15 C6.56064259,15 7.01072278,14.5499198 7.01072278,13.9946386 C7.01072278,13.4394378 6.56064259,12.9892772 6.00536139,12.9892772 Z M8.52547264,12.9892772 C7.97019144,12.9892772 7.52011125,13.4394378 7.52011125,13.9946386 C7.52011125,14.5499198 7.97019144,15 8.52547264,15 C9.08075384,15 9.53083403,14.5499198 9.53083403,13.9946386 C9.53083403,13.4394378 9.08075384,12.9892772 8.52547264,12.9892772 Z M11.5549563,12.9892772 C10.9996751,12.9892772 10.5495949,13.4394378 10.5495949,13.9946386 C10.5495949,14.5499198 10.9996751,15 11.5549563,15 C12.1102375,15 12.5603177,14.5499198 12.5603177,13.9946386 C12.5603177,13.4394378 12.1102375,12.9892772 11.5549563,12.9892772 Z M14.0482525,12.9892772 C13.4929713,12.9892772 13.0428911,13.4394378 13.0428911,13.9946386 C13.0428911,14.5499198 13.4929713,15 14.0482525,15 C14.6035337,15 15.0536139,14.5499198 15.0536139,13.9946386 C15.0536139,13.4394378 14.6035337,12.9892772 14.0482525,12.9892772 Z M13.5761509,12.4933043 L14.5586705,12.4933043 C14.5616463,12.4444839 14.5636571,12.3954223 14.5636571,12.3458781 L14.5636571,11.5431171 C14.5636571,9.81703227 13.1514058,8.40486145 11.4254014,8.40486145 L8.6682983,8.40486145 C6.94229386,8.40486145 5.53004261,9.81703227 5.53004261,11.5431171 L5.53004261,12.3458781 C5.53004261,12.3954223 5.53205333,12.4444839 5.5350292,12.4933043 L6.51754878,12.4933043 L6.51754878,11.5263075 C6.51754878,10.5108925 7.2375484,9.65593316 8.19207872,9.44537027 C8.09387502,9.59641577 8.03620749,9.77585267 8.03620749,9.96831905 L8.03620749,12.4933043 L9.04398175,12.4933043 L9.04398175,9.99172387 C9.04398175,9.71014225 9.27433015,9.47979384 9.55591177,9.47979384 L10.5378683,9.47979384 C10.8193695,9.47979384 11.0497179,9.71014225 11.0497179,9.99172387 L11.0497179,12.4933043 L12.0575726,12.4933043 L12.0575726,9.96831905 C12.0575726,9.77585267 11.9998247,9.59641577 11.9017014,9.44537027 C12.8562317,9.65593316 13.5761509,10.5108925 13.5761509,11.5263075 L13.5761509,12.4933043 Z M10.0468659,7.97586972 C10.8686081,7.97586972 11.5348008,7.30967705 11.5348008,6.48793486 C11.5348008,5.66619267 10.8686081,5 10.0468659,5 C9.22512374,5 8.55893107,5.66619267 8.55893107,6.48793486 C8.55893107,7.30967705 9.22512374,7.97586972 10.0468659,7.97586972 Z" id="Path"></path>
        </g>
    </g>
</svg>