<?xml version="1.0" encoding="UTF-8"?>
<svg width="20px" height="20px" viewBox="0 0 20 20" version="1.1" xmlns="http://www.w3.org/2000/svg" xmlns:xlink="http://www.w3.org/1999/xlink">
    <!-- Generator: Sketch 52.2 (67145) - http://www.bohemiancoding.com/sketch -->
    <title>View</title>
    <desc>Created with Sketch.</desc>
    <g id="Screens" stroke="none" stroke-width="1" fill="none" fill-rule="evenodd">
        <g id="View" fill="#5b5e65">
            <path d="M10,20 C15.5225,20 20,15.5225 20,10 C20,4.4775 15.5225,0 10,0 C4.4775,0 0,4.4775 0,10 C0,15.5225 4.4775,20 10,20 L10,20 Z M10.0333333,19.2333333 C4.95249999,19.2333333 0.833333333,15.1141666 0.833333333,10.0333333 C0.833333333,4.95249999 4.95249999,0.833333333 10.0333333,0.833333333 C15.1141666,0.833333333 19.2333333,4.95249999 19.2333333,10.0333333 C19.2333333,15.1141666 15.1141666,19.2333333 10.0333333,19.2333333 L10.0333333,19.2333333 Z M10,6 C7.355,6 5.08083333,7.65333333 4.18166667,10 C5.08083333,12.3466667 7.355,14 10,14 C12.645,14 14.9191667,12.3466667 15.8183333,10 C14.9191667,7.65333333 12.645,6 10,6 L10,6 Z M10,12.6666667 C8.51916667,12.6666667 7.355,11.4933333 7.355,10 C7.355,8.50666667 8.51833333,7.33333333 10,7.33333333 C11.4808333,7.33333333 12.645,8.50666667 12.645,10 C12.645,11.4933333 11.4816667,12.6666667 10,12.6666667 L10,12.6666667 Z M10,8.4 C9.10083333,8.4 8.41333333,9.09333333 8.41333333,10 C8.41333333,10.9066667 9.10083333,11.6 10,11.6 C10.8991667,11.6 11.5866667,10.9066667 11.5866667,10 C11.5866667,9.09333333 10.8991667,8.4 10,8.4 L10,8.4 Z" id="View-CO"></path>
        </g>
    </g>
</svg>