<?xml version="1.0" encoding="UTF-8"?>
<svg width="32px" height="32px" viewBox="0 0 32 32" version="1.1" xmlns="http://www.w3.org/2000/svg" xmlns:xlink="http://www.w3.org/1999/xlink">
    <!-- Generator: Sketch 52.2 (67145) - http://www.bohemiancoding.com/sketch -->
    <title>Visual Page Composer</title>
    <desc>Created with Sketch.</desc>
    <g id="Screens" stroke="none" stroke-width="1" fill="none" fill-rule="evenodd">
        <g id="Visual-Page-Composer" fill="#5b5e65">
            <path d="M16,32 C24.836556,32 32,24.836556 32,16 C32,7.163444 24.836556,0 16,0 C7.163444,0 0,7.163444 0,16 C0,24.836556 7.163444,32 16,32 Z M16,31 C7.71572875,31 1,24.2842712 1,16 C1,7.71572875 7.71572875,1 16,1 C24.2842712,1 31,7.71572875 31,16 C31,24.2842712 24.2842712,31 16,31 Z M22,12.2666667 L17.7647059,8 L17.7647059,11.9102222 C17.7647059,12.1072063 17.9231197,12.2666667 18.1185294,12.2666667 L22,12.2666667 Z M17.5869433,12.9777778 C17.295105,12.9777778 17.0588235,12.7395873 17.0588235,12.445746 L17.0588235,8 L10.6468908,8 C10.2896324,8 10,8.29136508 10,8.65203175 L10,23.3479683 C10,23.7080635 10.2906723,24 10.6494433,24 L21.3505882,24 C21.7092332,24 22,23.7061905 22,23.3461905 L22,12.9777778 L17.5869433,12.9777778 Z M18.2127836,18.6112698 L18.8886345,19.0686667 C18.9474055,19.0972698 18.9474055,19.1830159 18.9180357,19.2401905 L18.3303256,20.2407619 C18.3009559,20.2979365 18.2127836,20.3265079 18.1540126,20.2979365 L17.4193908,20.0120635 C17.272479,20.1264127 17.096166,20.2121587 16.9198529,20.2979365 L16.8023109,21.0412063 C16.8023109,21.098381 16.7141702,21.1555556 16.6553992,21.1555556 L15.4800105,21.1555556 C15.3918697,21.1555556 15.3330987,21.098381 15.3330987,21.0412063 L15.2155567,20.2979365 C15.0392437,20.2121587 14.8629307,20.1264127 14.7160189,20.0120635 L13.9813971,20.2979365 C13.8932248,20.3265079 13.8344538,20.2979365 13.805084,20.2693333 L13.2173739,19.2687937 C13.1880042,19.211619 13.1880042,19.1544444 13.2467752,19.0972698 L13.863855,18.6112698 C13.8344538,18.5255238 13.8344538,18.439746 13.8344538,18.3253968 C13.8344538,18.2110476 13.863855,18.1253016 13.863855,18.0395238 L13.2467752,17.582127 C13.1880042,17.5249524 13.1586029,17.4392063 13.1880042,17.4106032 L13.7756828,16.4100635 C13.8344538,16.3528889 13.8932248,16.3242857 13.9813971,16.3528889 L14.6866176,16.6387619 C14.8629307,16.5244127 15.0098424,16.4100635 15.1861555,16.3528889 L15.3036975,15.5810159 C15.3036975,15.5238413 15.3918697,15.4666667 15.4506408,15.4666667 L16.6260294,15.4666667 C16.6848004,15.4666667 16.7729412,15.5238413 16.7435714,15.609619 L16.8610819,16.3528889 C17.037395,16.4386349 17.213708,16.5244127 17.3606513,16.6387619 L18.0952416,16.3528889 C18.1834139,16.3242857 18.2421849,16.3528889 18.2715546,16.3814603 L18.8592647,17.3820317 C18.8886345,17.4392063 18.8886345,17.496381 18.8298634,17.5535556 L18.2127836,18.0395238 C18.2421849,18.1253016 18.2421849,18.2110476 18.2421849,18.3253968 C18.2421849,18.439746 18.2127836,18.5255238 18.2127836,18.6112698 Z M16.0569118,19.4488889 C16.6823739,19.4488889 17.2090756,18.9287619 17.2090756,18.3111111 C17.2090756,17.6934603 16.6823739,17.1733333 16.0569118,17.1733333 C15.4314496,17.1733333 14.9047164,17.6934603 14.9047164,18.3111111 C14.9047164,18.9287619 15.4314496,19.4488889 16.0569118,19.4488889 Z" id="Oval-116-Copy-4"></path>
        </g>
    </g>
</svg>