<?xml version="1.0" encoding="UTF-8"?>
<svg width="22px" height="20px" viewBox="0 0 22 20" version="1.1" xmlns="http://www.w3.org/2000/svg" xmlns:xlink="http://www.w3.org/1999/xlink">
    <!-- Generator: Sketch 52.2 (67145) - http://www.bohemiancoding.com/sketch -->
    <title>Edit CF</title>
    <desc>Created with Sketch.</desc>
    <g id="Screens" stroke="none" stroke-width="1" fill="none" fill-rule="evenodd">
        <g id="Edit-CF" fill="#5b5e65">
            <path d="M10.5330948,20 C4.7161932,20 0,15.5225 0,10 C0,4.4775 4.7161932,0 10.5330948,0 C16.3499964,0 21.0661896,4.4775 21.0661896,10 C21.0661896,15.5225 16.3499964,20 10.5330948,20 Z M10.5330948,19.1666667 C15.8652546,19.1666667 20.1884317,15.0622917 20.1884317,10 C20.1884317,4.93770833 15.8652546,0.833333333 10.5330948,0.833333333 C5.200935,0.833333333 0.877757901,4.93770833 0.877757901,10 C0.877757901,15.0622917 5.200935,19.1666667 10.5330948,19.1666667 Z M5.26654741,12.8891667 L5.26654741,15 L7.48990817,15 L13.9265069,8.83333333 L11.7031461,6.7225 L5.26654741,12.8891667 L5.26654741,12.8891667 Z M15.6240906,7.2225 C15.858452,7 15.858452,6.66666667 15.6240906,6.445 L14.2784878,5.1675 C14.0441264,4.945 13.6930233,4.945 13.4595397,5.1675 L12.4062302,6.1675 L14.6295909,8.27833333 L15.6240906,7.2225 L15.6240906,7.2225 Z"></path>
        </g>
    </g>
</svg>