<?xml version="1.0" encoding="UTF-8"?>
<svg width="20px" height="20px" viewBox="0 0 20 20" version="1.1" xmlns="http://www.w3.org/2000/svg" xmlns:xlink="http://www.w3.org/1999/xlink">
    <!-- Generator: Sketch 52.2 (67145) - http://www.bohemiancoding.com/sketch -->
    <title>Export Domains</title>
    <desc>Created with Sketch.</desc>
    <g id="Screens" stroke="none" stroke-width="1" fill="none" fill-rule="evenodd">
        <g id="Export-Domains" fill="#5b5e65">
            <path d="M10,20 C4.4775,20 0,15.5225 0,10 C0,4.4775 4.4775,0 10,0 C15.5225,0 20,4.4775 20,10 C20,15.5225 15.5225,20 10,20 L10,20 Z M10,19.1666667 C4.93770833,19.1666667 0.833333333,15.0622917 0.833333333,10 C0.833333333,4.93770833 4.93770833,0.833333333 10,0.833333333 C15.0622917,0.833333333 19.1666667,4.93770833 19.1666667,10 C19.1666667,15.0622917 15.0622917,19.1666667 10,19.1666667 Z M8.91256034,13.2243612 L8.91256034,13.7516683 L7.4461282,13.7516683 L7.4461282,14.744282 L12.3443325,14.744282 L12.3443325,13.7516683 L10.8779003,13.7516683 L10.8779003,13.2243612 L8.91256034,13.2243612 Z M13.835215,5.71003256 L5.95523099,5.71003256 C5.42985947,5.71003256 5,6.15102218 5,6.69003466 L5,11.7424412 C5,12.2814159 5.42985947,12.7224056 5.95523099,12.7224056 L13.835215,12.7224056 C14.3605865,12.7224056 14.790446,12.2814159 14.790446,11.7424412 L14.790446,6.69003466 C14.790446,6.15102218 14.3605865,5.71003256 13.835215,5.71003256 Z M13.8242835,11.7555437 L5.96616243,11.7555437 L5.96616243,6.67693222 L13.8242835,6.67693222 L13.8242835,11.7555437 Z M8.4945635,11.2100366 L11.3344553,11.2100366 C11.902338,11.2100366 12.3669793,10.7333646 12.3669793,10.1507402 L12.3669793,8.27716681 C12.3669793,7.69458022 11.902338,7.21790817 11.3344553,7.21790817 L8.4945635,7.21790817 C7.92664403,7.21790817 7.46200271,7.69458022 7.46200271,8.27716681 L7.46200271,10.1507402 C7.46200271,10.7333646 7.92664403,11.2100366 8.4945635,11.2100366 Z M8.44226191,8.69905027 L11.3867569,8.69905027 L11.3867569,10.2282976 L8.44226191,10.2282976 L8.44226191,8.69905027 Z" id="Path"></path>
        </g>
    </g>
</svg>