<?xml version="1.0" encoding="UTF-8"?>
<svg width="5px" height="21px" viewBox="0 0 5 21" version="1.1" xmlns="http://www.w3.org/2000/svg" xmlns:xlink="http://www.w3.org/1999/xlink">
    <!-- Generator: Sketch 52.2 (67145) - http://www.bohemiancoding.com/sketch -->
    <title>More Info</title>
    <desc>Created with Sketch.</desc>
    <g id="Screens" stroke="none" stroke-width="1" fill="none" fill-rule="evenodd">
        <g id="More-Info" transform="translate(2.500000, 10.308026) rotate(-90.000000) translate(-2.500000, -10.308026) translate(-7.500000, 7.808026)" fill="#5b5e65">
            <path d="M2.47658852,0 C1.11446483,0 0,1.11533607 0,2.47852459 C0,3.84171311 1.11446483,4.95704918 2.47658852,4.95704918 C3.8387122,4.95704918 4.95317703,3.84171311 4.95317703,2.47852459 C4.95317703,1.11533607 3.8387122,0 2.47658852,0 L2.47658852,0 Z M17.3361196,0 C15.9739959,0 14.8595311,1.11533607 14.8595311,2.47852459 C14.8595311,3.84171311 15.9739959,4.95704918 17.3361196,4.95704918 C18.6982433,4.95704918 19.8127081,3.84171311 19.8127081,2.47852459 C19.8127081,1.11533607 18.6982433,0 17.3361196,0 L17.3361196,0 Z M9.90635406,0 C8.54423038,0 7.42976555,1.11533607 7.42976555,2.47852459 C7.42976555,3.84171311 8.54423038,4.95704918 9.90635406,4.95704918 C11.2684777,4.95704918 12.3829426,3.84171311 12.3829426,2.47852459 C12.3829426,1.11533607 11.2684777,0 9.90635406,0 L9.90635406,0 Z" id="Shape-7"></path>
        </g>
    </g>
</svg>