<?xml version="1.0" encoding="UTF-8"?>
<svg width="32px" height="32px" viewBox="0 0 32 32" version="1.1" xmlns="http://www.w3.org/2000/svg" xmlns:xlink="http://www.w3.org/1999/xlink">
    <!-- Generator: Sketch 52.2 (67145) - http://www.bohemiancoding.com/sketch -->
    <title>Virtual Domain Composer</title>
    <desc>Created with Sketch.</desc>
    <g id="Screens" stroke="none" stroke-width="1" fill="none" fill-rule="evenodd">
        <g id="Virtual-Domain-Composer" fill="#5b5e65">
            <path d="M16,32 C24.836556,32 32,24.836556 32,16 C32,7.163444 24.836556,0 16,0 C7.163444,0 0,7.163444 0,16 C0,24.836556 7.163444,32 16,32 Z M16,31 C7.71572875,31 1,24.2842712 1,16 C1,7.71572875 7.71572875,1 16,1 C24.2842712,1 31,7.71572875 31,16 C31,24.2842712 24.2842712,31 16,31 Z M25.2646405,18.9364971 C25.1356654,18.4796856 24.669891,18.2157156 24.2231542,18.3481357 C24.0722581,18.3924018 23.9462033,18.4780209 23.8459879,18.586908 L19.4749541,16.9669185 C19.5304404,16.6800587 19.5606787,16.3842701 19.5606787,16.0806875 C19.5606787,14.6759752 18.9336207,13.4214651 17.9503193,12.5934612 L21.4148674,7.71173777 C21.4508725,7.71680757 21.4869146,7.72316373 21.5243613,7.72316373 C21.9897291,7.72316373 22.3660822,7.33755643 22.3660822,6.86148728 C22.3660822,6.38541813 21.9897291,6 21.5243613,6 C21.0594372,6 20.6830841,6.38560731 20.6830841,6.86167645 C20.6830841,7.02186693 20.7284047,7.17017743 20.8031504,7.29877626 L17.3464761,12.1701331 C16.698754,11.7887632 15.9505946,11.5671676 15.1500911,11.5671676 C13.7918782,11.5671676 12.5779815,12.1966171 11.7691976,13.1850007 L10.2205347,12.0334755 C10.2250816,11.9963979 10.2315137,11.9597743 10.2315137,11.9211833 C10.2315137,11.4453412 9.85475396,11.0597339 9.38979283,11.0597339 C8.92486868,11.0597339 8.54810896,11.4453412 8.54810896,11.9211833 C8.54810896,12.3970633 8.92486868,12.7828976 9.38979283,12.7828976 C9.54608601,12.7828976 9.6912154,12.7362857 9.81667875,12.6600117 L11.3491504,13.7992407 C10.964332,14.4693999 10.7397253,15.247576 10.7397253,16.0808767 C10.7397253,16.6012498 10.8301816,17.0982792 10.9879165,17.5631494 L7.32715166,19.4013294 C7.29735689,19.379726 7.26837537,19.3568363 7.23525364,19.3388271 C6.82474376,19.1161722 6.31527531,19.276968 6.0977291,19.6973451 C5.88055255,20.1179113 6.03747416,20.6393059 6.44816887,20.8615825 C6.85908538,21.0844644 7.36855383,20.9236308 7.586137,20.5032916 C7.65940405,20.3611102 7.68653726,20.2085623 7.67947671,20.0590033 L11.2825003,18.2498043 C11.9946176,19.5769941 13.340188,20.492925 14.9023065,20.5819113 L14.8931759,23.6652564 C14.8609044,23.6832655 14.8281893,23.6993829 14.7973594,23.7220457 C14.4203779,24.0000144 14.3350968,24.5383966 14.6075009,24.9242309 C14.8793135,25.3100274 15.4057495,25.3973112 15.782731,25.1189263 C16.1590471,24.8409576 16.2447718,24.3023862 15.9723308,23.9161357 C15.881246,23.7866667 15.7589248,23.6934429 15.6249592,23.6337025 L15.6349031,20.56621 C17.3044455,20.3789302 18.6897546,19.2379987 19.2679432,17.6872838 L23.6275914,19.3032629 C23.6331733,19.3403405 23.6373135,19.3774181 23.6474793,19.4140417 C23.776861,19.8706262 24.243042,20.1348611 24.6897788,20.0032733 C25.1356654,19.8706262 25.3940223,19.3937247 25.2646405,18.9364971 Z M15.1500911,19.9068715 C13.0888916,19.9068715 11.4121039,18.1904801 11.4121039,16.0806875 C11.4121039,13.9715003 13.0888916,12.2548819 15.1500911,12.2548819 C17.2115124,12.2548819 18.8876717,13.9715003 18.8876717,16.0806875 C18.8878935,18.1907071 17.2115124,19.9068715 15.1500911,19.9068715 Z M15.1500911,13.2871382 C13.6447157,13.2871382 12.4202466,14.5405889 12.4202466,16.0808994 C12.4202466,17.6216261 13.6447157,18.875039 15.1500911,18.875039 C16.6554665,18.875039 17.8797508,17.6218153 17.8797508,16.0808994 C17.8799356,14.5403619 16.6554665,13.2871382 15.1500911,13.2871382 Z" id="Path"></path>
        </g>
    </g>
</svg>