<?xml version="1.0" encoding="UTF-8"?>
<svg width="20px" height="20px" viewBox="0 0 20 20" version="1.1" xmlns="http://www.w3.org/2000/svg" xmlns:xlink="http://www.w3.org/1999/xlink">
    <!-- Generator: Sketch 52.2 (67145) - http://www.bohemiancoding.com/sketch -->
    <title>Virtual Domain Roles</title>
    <desc>Created with Sketch.</desc>
    <g id="Screens" stroke="none" stroke-width="1" fill="none" fill-rule="evenodd">
        <g id="Virtual-Domain-Roles" fill="#5b5e65">
            <path d="M10,20 C4.4775,20 0,15.5225 0,10 C0,4.4775 4.4775,0 10,0 C15.5225,0 20,4.4775 20,10 C20,15.5225 15.5225,20 10,20 L10,20 Z M10,19.1666667 C4.93770833,19.1666667 0.833333333,15.0622917 0.833333333,10 C0.833333333,4.93770833 4.93770833,0.833333333 10,0.833333333 C15.0622917,0.833333333 19.1666667,4.93770833 19.1666667,10 C19.1666667,15.0622917 15.0622917,19.1666667 10,19.1666667 Z M10.6315152,12.6662639 L10.6315152,13.6176275 C11.0175758,13.7279306 11.3209091,14.017476 11.4174242,14.4035366 L14.2163636,14.4035366 C14.3818182,14.4035366 14.5059091,14.5414154 14.5059091,14.6930821 C14.5059091,14.8585366 14.3680303,14.9826275 14.2163636,14.9826275 L11.4174242,14.9826275 C11.2933333,15.4652033 10.8521212,15.8099003 10.3419697,15.8099003 C9.83181818,15.8099003 9.39060606,15.4514154 9.26651515,14.9826275 L6.44,14.9826275 C6.27454545,14.9826275 6.15045455,14.8447487 6.15045455,14.6930821 C6.15045455,14.5276275 6.28833333,14.4035366 6.44,14.4035366 L9.26651515,14.4035366 C9.37681818,14.017476 9.66636364,13.7141427 10.0524242,13.6176275 L10.0524242,12.6662639 C10.0524242,12.5008093 10.190303,12.3767184 10.3419697,12.3767184 C10.4936364,12.3629306 10.6315152,12.5008093 10.6315152,12.6662639 M14.057803,10.2120215 C14.057803,9.70186995 13.6441667,9.37293056 13.1202273,9.37293056 L7.49772727,9.37293056 C6.98757576,9.37293056 6.56015152,9.68808207 6.56015152,10.2120215 C6.56015152,10.722173 6.99840909,11.0264912 7.52234848,11.0264912 L13.1340152,11.0264912 C13.6441667,11.0127033 14.057803,10.722173 14.057803,10.2120215 M14.8230303,10.2120215 C14.8230303,11.0530821 14.1474242,11.7286881 13.3063636,11.7286881 L7.35,11.7286881 C6.50893939,11.7286881 5.83333333,11.0530821 5.83333333,10.2120215 C5.83333333,9.37096086 6.50893939,8.6953548 7.35,8.6953548 L13.3063636,8.6953548 C14.1336364,8.68156692 14.8230303,9.37096086 14.8230303,10.2120215 M14.0715909,6.51686995 C14.0715909,6.00671844 13.7318182,5.70240026 13.2078788,5.70240026 L7.43765152,5.70240026 C6.9275,5.70240026 6.54931818,5.99293056 6.54931818,6.51686995 C6.54931818,7.02702147 6.91371212,7.28209723 7.43765152,7.28209723 L13.1970455,7.28209723 C13.707197,7.26830935 14.0715909,7.02702147 14.0715909,6.51686995 M14.8368182,6.51686995 C14.8368182,7.35793056 14.1612121,8.03353662 13.3201515,8.03353662 L7.36378788,8.03353662 C6.52272727,8.03353662 5.84712121,7.35793056 5.84712121,6.51686995 C5.84712121,5.67580935 6.52272727,5.00020329 7.36378788,5.00020329 L13.3201515,5.00020329 C14.1474242,4.98641541 14.8368182,5.67580935 14.8368182,6.51686995 M13.1960606,6.10323359 C12.9754545,6.10323359 12.7962121,6.28247601 12.7962121,6.50308207 C12.7962121,6.72368813 12.9754545,6.90293056 13.1960606,6.90293056 C13.4166667,6.90293056 13.5959091,6.72368813 13.5959091,6.50308207 C13.609697,6.28247601 13.4304545,6.10323359 13.1960606,6.10323359 M7.40515152,6.10323359 C7.18454545,6.10323359 7.00530303,6.28247601 7.00530303,6.50308207 C7.00530303,6.72368813 7.18454545,6.90293056 7.40515152,6.90293056 C7.62575758,6.90293056 7.805,6.72368813 7.805,6.50308207 C7.81878788,6.28247601 7.63954545,6.10323359 7.40515152,6.10323359 M8.94939394,6.10323359 C8.72878788,6.10323359 8.54954545,6.28247601 8.54954545,6.50308207 C8.54954545,6.72368813 8.72878788,6.90293056 8.94939394,6.90293056 C9.17,6.90293056 9.34924242,6.72368813 9.34924242,6.50308207 C9.34924242,6.28247601 9.17,6.10323359 8.94939394,6.10323359 M13.1822727,9.7983851 C12.9616667,9.7983851 12.7824242,9.97762753 12.7824242,10.1982336 C12.7824242,10.4188396 12.9616667,10.5980821 13.1822727,10.5980821 C13.4028788,10.5980821 13.5821212,10.4188396 13.5821212,10.1982336 C13.5959091,9.97762753 13.4166667,9.7983851 13.1822727,9.7983851 M7.39136364,9.7983851 C7.17075758,9.7983851 6.99151515,9.97762753 6.99151515,10.1982336 C6.99151515,10.4188396 7.17075758,10.5980821 7.39136364,10.5980821 C7.6119697,10.5980821 7.79121212,10.4188396 7.79121212,10.1982336 C7.805,9.97762753 7.62575758,9.7983851 7.39136364,9.7983851 M9.33545455,10.2120215 C9.33545455,10.4326275 9.15621212,10.61187 8.93560606,10.61187 C8.715,10.61187 8.53575758,10.4326275 8.53575758,10.2120215 C8.53575758,9.99141541 8.715,9.81217298 8.93560606,9.81217298 C9.15621212,9.7983851 9.33545455,9.97762753 9.33545455,10.2120215" id="Path"></path>
        </g>
    </g>
</svg>