<?xml version="1.0" encoding="UTF-8" standalone="no"?>
<svg width="18px" height="18px" viewBox="0 0 18 18" version="1.1" xmlns="http://www.w3.org/2000/svg" xmlns:xlink="http://www.w3.org/1999/xlink">
    <!-- Generator: Sketch 42 (36781) - http://www.bohemiancoding.com/sketch -->
    <title>Clock</title>
    <desc>Created with Sketch.</desc>
    <defs></defs>
    <g id="Page-1" stroke="none" stroke-width="1" fill="none" fill-rule="evenodd">
        <g id="Icon/Clock/Default" fill="#555555">
            <path d="M0.305765213,6.67023611 C-0.975379901,11.4520277 1.88844448,16.4130897 6.67023611,17.6942348 C11.4520277,18.9753799 16.4130897,16.1115555 17.6942348,11.3297639 C18.9753799,6.54797226 16.1115555,1.58691033 11.3297639,0.305765213 C6.54797226,-0.975379901 1.58691033,1.88844448 0.305765213,6.67023611 L0.305765213,6.67023611 Z M15.9555378,10.8639611 C14.9301717,14.6893944 10.9622223,16.980904 7.13603887,15.9555378 C3.30985548,14.9301717 1.01909601,10.9622223 2.04446215,7.13603887 C3.0698283,3.31060557 7.03777774,1.01909601 10.8639611,2.04446215 C14.6901445,3.0698283 16.980904,7.03777774 15.9555378,10.8639611 L15.9555378,10.8639611 Z M4.76952082,7.40081886 L4.41998123,8.70521661 L9.63682213,10.1026249 L13.6302745,6.3266972 L12.6866676,5.32833411 L9.29103297,8.61145599 L4.7702709,7.40006878 L4.76952082,7.40081886 L4.76952082,7.40081886 Z" id="Clock"></path>
        </g>
    </g>
</svg>