<?xml version="1.0" encoding="UTF-8" standalone="no"?>
<svg width="18px" height="18px" viewBox="0 0 18 18" version="1.1" xmlns="http://www.w3.org/2000/svg" xmlns:xlink="http://www.w3.org/1999/xlink">
    <!-- Generator: Sketch 42 (36781) - http://www.bohemiancoding.com/sketch -->
    <title>Clock</title>
    <desc>Created with Sketch.</desc>
    <defs></defs>
    <g id="Page-1" stroke="none" stroke-width="1" fill="none" fill-rule="evenodd">
        <path d="M0.305730579,6.66948058 C-0.975269421,11.4507306 1.88823058,16.4112306 6.66948058,17.6922306 C11.4507306,18.9732306 16.4112306,16.1097306 17.6922306,11.3284806 C18.9732306,6.54723058 16.1097306,1.58673058 11.3284806,0.305730579 C6.54723058,-0.975269421 1.58673058,1.88823058 0.305730579,6.66948058 L0.305730579,6.66948058 Z M15.9537306,10.8627306 C14.9284806,14.6877306 10.9609806,16.9789806 7.13523058,15.9537306 C3.30948058,14.9284806 1.01898058,10.9609806 2.04423058,7.13523058 C3.06948058,3.31023058 7.03698058,1.01898058 10.8627306,2.04423058 C14.6884806,3.06948058 16.9789806,7.03698058 15.9537306,10.8627306 L15.9537306,10.8627306 Z M4.76898058,7.39998058 L4.41948058,8.70423058 L9.63573058,10.1014806 L13.6287306,6.32598058 L12.6852306,5.32773058 L9.28998058,8.61048058 L4.76973058,7.39923058 L4.76898058,7.39998058 L4.76898058,7.39998058 Z" id="Clock" fill="#026BC8"></path>
    </g>
</svg>