<?xml version="1.0" encoding="UTF-8"?>
<svg width="14px" height="14px" viewBox="0 0 14 14" version="1.1" xmlns="http://www.w3.org/2000/svg" xmlns:xlink="http://www.w3.org/1999/xlink">
    <!-- Generator: Sketch 53.2 (72643) - https://sketchapp.com -->
    <title>1 - Main Use/close</title>
    <desc>Created with Sketch.</desc>
    <g id="Page-1" stroke="none" stroke-width="1" fill="none" fill-rule="evenodd">
        <g id="Sandbox-" transform="translate(-456.000000, -20.000000)" fill="#4A4A4A" fill-rule="nonzero">
            <g id="Group-3">
                <path d="M464.600231,27 L469.857555,21.7426757 C470.047482,21.5527493 470.047482,21.2456343 469.857555,21.0557079 L468.944292,20.1424448 C468.754366,19.9525184 468.447251,19.9525184 468.257324,20.1424448 L463,25.3997691 L457.742676,20.1424448 C457.552749,19.9525184 457.245634,19.9525184 457.055708,20.1424448 L456.142445,21.0557079 C455.952518,21.2456343 455.952518,21.5527493 456.142445,21.7426757 L461.399769,27 L456.142445,32.2573243 C455.952518,32.4472507 455.952518,32.7543657 456.142445,32.9442921 L457.055708,33.8575552 C457.245634,34.0474816 457.552749,34.0474816 457.742676,33.8575552 L463,28.6002309 L468.257324,33.8575552 C468.447251,34.0474816 468.754366,34.0474816 468.944292,33.8575552 L469.857555,32.9442921 C470.047482,32.7543657 470.047482,32.4472507 469.857555,32.2573243 L464.600231,27 Z" id="1---Main-Use/close"></path>
            </g>
        </g>
    </g>
</svg>